<svg aria-hidden="true" style="position:absolute;width:0;height:0;overflow:hidden" xmlns="http://www.w3.org/2000/svg"><defs>
<symbol id="icon-arrow" viewBox="0 0 32 32">
<path d="M24.464 17.584l-13.759 13.759c-0.875 0.876-2.294 0.876-3.169 0s-0.875-2.294 0-3.169l12.175-12.175-12.175-12.174c-0.875-0.875-0.875-2.294 0-3.169s2.294-0.875 3.169 0l13.759 13.759c0.437 0.438 0.656 1.011 0.656 1.584s-0.219 1.147-0.656 1.584z"></path>
</symbol>
<symbol id="icon-burger" viewBox="0 0 32 32"><path stroke-width="1.6" d="M0 6.4h32M0 16h32M0 25.6h32"/></symbol>
<symbol id="icon-close" viewBox="0 0 32 32"><path stroke-width="2" d="m2.52 2 26.96 28M2 29.48 30 2.52"/></symbol>
<symbol id="icon-ellipse" viewBox="0 0 32 32"><path d="M32 16c0 8.837-7.163 16-16 16S0 24.837 0 16 7.163 0 16 0s16 7.163 16 16z"/></symbol>
<symbol id="icon-facebook" viewBox="0 0 16 32"><path d="M14.143 15.971H10.11v14.865H3.998V15.971H1.092v-5.222h2.906V7.367c0-2.417 1.142-6.204 6.167-6.204l4.527.019v5.072h-3.284c-.538 0-1.297.272-1.297 1.425v3.073h4.567l-.534 5.219z"/></symbol>
<symbol id="icon-github" viewBox="0 0 32 32"><path d="M16 0C7.211 0 0 7.211 0 16c0 7.499 5.262 14.312 12.25 16v-5.293a3.921 3.921 0 0 1-2.062-.06l.028.007c-.946-.278-1.714-.909-2.285-1.869-.363-.613-1.008-1.28-1.68-1.23l-.165-1.867c1.454-.125 2.71.886 3.456 2.139.333.558.715.885 1.205 1.029.472.141.981.074 1.573-.136.149-1.186.693-1.629 1.104-2.256-4.168-.621-5.829-2.832-6.488-4.576-.874-2.318-.405-5.213 1.139-7.043.03-.035.085-.128.064-.192-.709-2.141.154-3.91.186-4.098.818.24.95-.243 3.552 1.336l.448.27c.189.112.128.048.317.032a13.246 13.246 0 0 1 3.349-.469h.01c1.136.014 2.272.176 3.403.483l.146.016c-.013-.003.04-.01.128-.062 3.248-1.968 3.131-1.325 4.003-1.608.032.189.882 1.987.182 4.099-.096.291 2.816 2.957 1.202 7.235-.659 1.744-2.32 3.957-6.486 4.578.534.816 1.176 1.248 1.173 2.928v6.606c6.986-1.688 12.25-8.501 12.25-16 0-8.789-7.211-16-16-16z"/></symbol>
<symbol id="icon-home" viewBox="0 0 32 32"><path d="M31.618 15.643c.237-.258.382-.603.382-.983a1.45 1.45 0 0 0-.501-1.098l-.002-.002L17.86 1.629a1.69 1.69 0 0 0-1.093-.399c-.431 0-.824.16-1.124.425l.002-.002L1.964 14.197a1.443 1.443 0 0 0-.066 2.078l.345.357c.566.591 1.487.665 2.053.158l1.022-.916V29.28c0 .825.665 1.489 1.489 1.489h5.329c.822 0 1.489-.665 1.489-1.489v-9.378h6.806v9.378c-.012.822.576 1.489 1.398 1.489h5.652c.822 0 1.487-.665 1.487-1.489V16.062l.633.556c.347.305 1.078.059 1.63-.549l.389-.426z"/></symbol>
<symbol id="icon-point" viewBox="0 0 32 32"><path d="M32 16c0 8.837-7.163 16-16 16S0 24.837 0 16 7.163 0 16 0s16 7.163 16 16z"/></symbol><symbol id="icon-telegram" viewBox="0 0 32 32"><path d="m12.612 19.671-.49 6.444c.703 0 1.007-.282 1.372-.62l3.292-2.938 6.822 4.665c1.251.65 2.134.307 2.473-1.075L30.558 6.56c.399-1.727-.669-2.401-1.887-1.978L2.348 13.989c-1.796.652-1.77 1.585-.305 2.012l6.729 1.952 15.632-9.129c.736-.455 1.405-.204.855.252L12.612 19.672z"/></symbol>
<symbol id="icon-arrow-right" viewBox="0 0 32 32"><path d="m19.414 27.414 10-10a2 2 0 0 0 0-2.828l-10-10a2 2 0 1 0-2.828 2.828L23.172 14H4a2 2 0 1 0 0 4h19.172l-6.586 6.586c-.39.39-.586.902-.586 1.414s.195 1.024.586 1.414a2 2 0 0 0 2.828 0z"/></symbol></defs></svg>